<?xml version="1.0" encoding="utf-8"?>
<!-- Generator: Adobe Illustrator 17.0.0, SVG Export Plug-In . SVG Version: 6.00 Build 0)  -->
<!DOCTYPE svg PUBLIC "-//W3C//DTD SVG 1.1//EN" "http://www.w3.org/Graphics/SVG/1.1/DTD/svg11.dtd">
<svg version="1.1" id="Layer_1" xmlns="http://www.w3.org/2000/svg" xmlns:xlink="http://www.w3.org/1999/xlink" x="0px" y="0px"
	 width="273.5px" height="72.8px" viewBox="0 0 273.5 72.8" enable-background="new 0 0 273.5 72.8" xml:space="preserve">
<g>
	<g>
		<path fill="#FFFFFF" d="M104.5,54v-9.3h-7.8V54h1.2v-8.3h5.5V54H104.5z"/>
		<path fill="#FFFFFF" d="M110,54.2c1.8,0,3-1.4,3-3.6c0-2.2-1.2-3.5-3-3.5c-1,0-1.8,0.5-2.3,1.2v-1h-1.1v9.3h1.1V53
			C108.3,53.7,109.1,54.2,110,54.2z M109.7,53.2c-0.8,0-1.7-0.5-2-1.1v-3.1c0.4-0.6,1.2-1.1,2-1.1c1.4,0,2.2,1.1,2.2,2.6
			C111.9,52.1,111.1,53.2,109.7,53.2z"/>
		<path fill="#FFFFFF" d="M117.6,54.2c2.1,0,3.3-1.6,3.3-3.6c0-2-1.3-3.5-3.3-3.5c-2.1,0-3.3,1.6-3.3,3.5
			C114.3,52.6,115.6,54.2,117.6,54.2z M117.6,53.2c-1.4,0-2.3-1.2-2.3-2.6c0-1.4,0.8-2.6,2.3-2.6c1.4,0,2.2,1.2,2.2,2.6
			C119.9,52,119.1,53.2,117.6,53.2z"/>
		<path fill="#FFFFFF" d="M123.7,54l3.6-5.3V54h1.1v-6.8h-1l-3.5,5.2v-5.2h-1.1V54H123.7z"/>
		<path fill="#FFFFFF" d="M132.8,54.2c1.9,0,3.1-0.8,3.1-2c0-1.1-1.2-1.6-2-1.7c0.8-0.1,1.8-0.6,1.8-1.7c0-1.1-1.3-1.8-3.1-1.8
			c-1.2,0-2.1,0.4-2.8,1.1l0.5,0.6c0.6-0.6,1.3-0.9,2.3-0.9c1.1,0,2,0.4,2,1.1c0,0.8-0.9,1.1-2,1.1h-1.5V51h1.5
			c1.2,0,2.1,0.3,2.1,1.1c0,0.7-0.8,1.2-2,1.2c-1,0-1.9-0.3-2.5-0.9l-0.5,0.7C130.4,53.7,131.4,54.2,132.8,54.2z"/>
		<path fill="#FFFFFF" d="M141.4,54c1.2,0,2-0.7,2-1.8c0-0.8-0.5-1.5-1.2-1.7c0.6-0.2,1.1-0.7,1.1-1.5c0-1-0.7-1.7-1.9-1.7h-3.7V54
			H141.4z M141.2,53.1h-2.5V51h2.5c0.7,0,1.1,0.5,1.1,1.1C142.3,52.7,141.9,53.1,141.2,53.1z M141.1,50.1h-2.5v-1.9h2.5
			c0.6,0,1,0.4,1,1C142.1,49.7,141.8,50.1,141.1,50.1z"/>
		<path fill="#FFFFFF" d="M148.3,54.2c2.1,0,3.3-1.6,3.3-3.6c0-2-1.3-3.5-3.3-3.5s-3.3,1.6-3.3,3.5C145,52.6,146.2,54.2,148.3,54.2z
			 M148.3,53.2c-1.4,0-2.3-1.2-2.3-2.6c0-1.4,0.8-2.6,2.3-2.6c1.4,0,2.2,1.2,2.2,2.6C150.5,52,149.7,53.2,148.3,53.2z"/>
		<path fill="#FFFFFF" d="M152.6,55.7h1.1V54h5.1v1.7h1.1v-2.6H159v-5.8h-4.7l-0.4,3.3c-0.3,2-0.7,2.5-1.3,2.6V55.7z M155.2,48.2
			h2.7v4.9h-4c0.5-0.4,0.8-1.1,1-2.4L155.2,48.2z"/>
		<path fill="#FFFFFF" d="M164.2,54.2c1.2,0,2-0.5,2.5-1.2l-0.7-0.6c-0.4,0.6-1,0.9-1.7,0.9c-1.4,0-2.3-1.1-2.3-2.6
			c0-1.5,0.9-2.6,2.3-2.6c0.7,0,1.3,0.3,1.7,0.9l0.7-0.6c-0.5-0.7-1.2-1.2-2.5-1.2c-2,0-3.4,1.5-3.4,3.5
			C160.8,52.6,162.2,54.2,164.2,54.2z"/>
		<path fill="#FFFFFF" d="M170.4,54v-5.8h2v-0.9h-5v0.9h2V54H170.4z"/>
		<path fill="#FFFFFF" d="M177.6,54c1.2,0,2-0.7,2-1.8c0-0.8-0.5-1.5-1.2-1.7c0.6-0.2,1.1-0.7,1.1-1.5c0-1-0.7-1.7-1.9-1.7h-3.7V54
			H177.6z M177.4,53.1h-2.5V51h2.5c0.7,0,1.1,0.5,1.1,1.1C178.4,52.7,178,53.1,177.4,53.1z M177.3,50.1h-2.5v-1.9h2.5
			c0.6,0,1,0.4,1,1C178.3,49.7,178,50.1,177.3,50.1z"/>
		<path fill="#FFFFFF" d="M184.6,54.2c1.1,0,2-0.4,2.7-1l-0.5-0.7c-0.5,0.5-1.3,0.9-2.1,0.9c-1.5,0-2.4-1.1-2.4-2.3h5.5v-0.3
			c0-2-1.2-3.6-3.2-3.6c-1.9,0-3.3,1.6-3.3,3.5C181.1,52.7,182.6,54.2,184.6,54.2z M186.7,50.2h-4.4c0.1-1,0.8-2.3,2.2-2.3
			C186,47.9,186.7,49.2,186.7,50.2z"/>
		<path fill="#FFFFFF" d="M190.5,54v-3h3.5v3h1.1v-6.8H194V50h-3.5v-2.8h-1.1V54H190.5z"/>
		<path fill="#FFFFFF" d="M198.2,54v-3h3.5v3h1.1v-6.8h-1.1V50h-3.5v-2.8h-1.1V54H198.2z"/>
		<path fill="#FFFFFF" d="M207.8,54.2c2.1,0,3.3-1.6,3.3-3.6c0-2-1.3-3.5-3.3-3.5c-2.1,0-3.3,1.6-3.3,3.5
			C204.5,52.6,205.8,54.2,207.8,54.2z M207.8,53.2c-1.4,0-2.3-1.2-2.3-2.6c0-1.4,0.8-2.6,2.3-2.6c1.4,0,2.2,1.2,2.2,2.6
			C210.1,52,209.3,53.2,207.8,53.2z"/>
		<path fill="#FFFFFF" d="M215.6,51.1v-0.9h-3.4v0.9H215.6z"/>
		<path fill="#FFFFFF" d="M219.4,54v-5.8h2v-0.9h-5v0.9h2V54H219.4z"/>
		<path fill="#FFFFFF" d="M225.7,54.2c2.1,0,3.3-1.6,3.3-3.6c0-2-1.3-3.5-3.3-3.5c-2.1,0-3.3,1.6-3.3,3.5
			C222.3,52.6,223.6,54.2,225.7,54.2z M225.7,53.2c-1.4,0-2.3-1.2-2.3-2.6c0-1.4,0.8-2.6,2.3-2.6c1.4,0,2.2,1.2,2.2,2.6
			C227.9,52,227.1,53.2,225.7,53.2z"/>
		<path fill="#FFFFFF" d="M234,54.2c1.8,0,3-1.4,3-3.6c0-2.2-1.2-3.5-3-3.5c-1,0-1.8,0.5-2.3,1.2v-1h-1.1v9.3h1.1V53
			C232.3,53.7,233.1,54.2,234,54.2z M233.8,53.2c-0.8,0-1.7-0.5-2-1.1v-3.1c0.4-0.6,1.2-1.1,2-1.1c1.4,0,2.2,1.1,2.2,2.6
			C235.9,52.1,235.1,53.2,233.8,53.2z"/>
		<path fill="#FFFFFF" d="M243.4,47.2h-4.7V54h1.1v-5.8h3.7V47.2z"/>
		<path fill="#FFFFFF" d="M247.8,54.2c2.1,0,3.3-1.6,3.3-3.6c0-2-1.3-3.5-3.3-3.5c-2.1,0-3.3,1.6-3.3,3.5
			C244.4,52.6,245.7,54.2,247.8,54.2z M247.8,53.2c-1.4,0-2.3-1.2-2.3-2.6c0-1.4,0.8-2.6,2.3-2.6c1.4,0,2.2,1.2,2.2,2.6
			C250,52,249.2,53.2,247.8,53.2z"/>
		<path fill="#FFFFFF" d="M256.6,54c1.2,0,2-0.7,2-1.8c0-0.8-0.5-1.5-1.2-1.7c0.6-0.2,1.1-0.7,1.1-1.5c0-1-0.7-1.7-1.9-1.7h-3.7V54
			H256.6z M256.4,53.1h-2.5V51h2.5c0.7,0,1.1,0.5,1.1,1.1C257.5,52.7,257.1,53.1,256.4,53.1z M256.4,50.1h-2.5v-1.9h2.5
			c0.6,0,1,0.4,1,1C257.4,49.7,257,50.1,256.4,50.1z"/>
		<path fill="#FFFFFF" d="M265.9,54v-4.7c0-1.6-1.2-2.3-2.6-2.3c-1.1,0-2,0.4-2.7,1.1l0.5,0.7c0.6-0.6,1.3-0.9,2.1-0.9
			c1,0,1.7,0.5,1.7,1.4v1.2c-0.5-0.6-1.3-0.9-2.2-0.9c-1.1,0-2.4,0.7-2.4,2.2c0,1.5,1.2,2.2,2.4,2.2c0.9,0,1.7-0.3,2.2-0.9V54H265.9
			z M262.9,53.4c-1,0-1.7-0.6-1.7-1.5c0-0.9,0.7-1.5,1.7-1.5c0.7,0,1.5,0.3,1.9,0.8v1.3C264.4,53.1,263.7,53.4,262.9,53.4z"/>
		<path fill="#FFFFFF" d="M269,54l1.7-2.6h1.8V54h1.1v-6.8h-3.6c-1.4,0-2.1,0.9-2.1,2.1c0,1.1,0.7,1.9,1.7,2l-1.8,2.7H269z
			 M270.1,50.5c-0.8,0-1.2-0.5-1.2-1.1c0-0.7,0.4-1.1,1.2-1.1h2.4v2.3H270.1z"/>
		<path fill="#FFFFFF" d="M102.6,65l-3-3.7l3-3.1h-1.3l-3.6,3.6v-3.6h-1.1V65h1.1v-1.9l1.1-1.1l2.4,3H102.6z"/>
		<path fill="#FFFFFF" d="M106.8,65.2c2.1,0,3.3-1.6,3.3-3.6c0-2-1.3-3.5-3.3-3.5s-3.3,1.6-3.3,3.5
			C103.4,63.6,104.7,65.2,106.8,65.2z M106.8,64.2c-1.4,0-2.3-1.2-2.3-2.6c0-1.4,0.8-2.6,2.3-2.6s2.2,1.2,2.2,2.6
			C109,63,108.2,64.2,106.8,64.2z"/>
		<path fill="#FFFFFF" d="M118.8,65v-6.8h-1.4l-2,5l-2.1-5h-1.4V65h1.1v-5.3l2.2,5.3h0.4l2.2-5.3V65H118.8z"/>
		<path fill="#FFFFFF" d="M126.5,65v-6.8h-5.6V65h1.1v-5.8h3.5V65H126.5z"/>
		<path fill="#FFFFFF" d="M133.9,65v-4.7c0-1.6-1.2-2.3-2.6-2.3c-1.1,0-2,0.4-2.7,1.1l0.5,0.7c0.6-0.6,1.3-0.9,2.1-0.9
			c1,0,1.7,0.5,1.7,1.4v1.2c-0.5-0.6-1.3-0.9-2.2-0.9c-1.1,0-2.4,0.7-2.4,2.2c0,1.5,1.2,2.2,2.4,2.2c0.9,0,1.7-0.3,2.2-0.9V65H133.9
			z M130.9,64.4c-1,0-1.7-0.6-1.7-1.5c0-0.9,0.7-1.5,1.7-1.5c0.7,0,1.5,0.3,1.9,0.8v1.3C132.4,64.1,131.7,64.4,130.9,64.4z"/>
		<path fill="#FFFFFF" d="M137,65v-3h3.5v3h1.1v-6.8h-1.1V61H137v-2.8H136V65H137z"/>
		<path fill="#FFFFFF" d="M144.7,65l3.6-5.3V65h1.1v-6.8h-1l-3.5,5.2v-5.2h-1.1V65H144.7z"/>
		<path fill="#FFFFFF" d="M152.4,65l1.7-2.6h1.8V65h1.1v-6.8h-3.6c-1.4,0-2.1,0.9-2.1,2.1c0,1.1,0.7,1.9,1.7,2l-1.8,2.7H152.4z
			 M153.5,61.5c-0.8,0-1.2-0.5-1.2-1.1c0-0.7,0.4-1.1,1.2-1.1h2.4v2.3H153.5z"/>
		<path fill="#FFFFFF" d="M110.4,35v-5.3h-9.1v-2.2h8.9v-5.3h-8.9v-2h9.1V15H95.3v20H110.4z"/>
		<path fill="#FFFFFF" d="M120.2,35.4c3.3,0,5.3-1.5,6.1-2.7l-3.5-3.3c-0.4,0.7-1.3,1.3-2.4,1.3c-1.5,0-2.8-1-2.8-2.8
			c0-1.9,1.3-2.8,2.8-2.8c1.1,0,2,0.5,2.4,1.2l3.5-3.3c-0.8-1.2-2.8-2.7-6.1-2.7c-4.6,0-8.1,3-8.1,7.6
			C112,32.4,115.6,35.4,120.2,35.4z"/>
		<path fill="#FFFFFF" d="M135.2,35.4c5.2,0,8.2-3.6,8.2-7.6s-3-7.6-8.2-7.6c-5.1,0-8.1,3.5-8.1,7.6S130.1,35.4,135.2,35.4z
			 M135.2,30.6c-1.6,0-2.6-1.2-2.6-2.8c0-1.6,0.9-2.8,2.6-2.8c1.7,0,2.6,1.2,2.6,2.8C137.8,29.4,136.9,30.6,135.2,30.6z"/>
		<path fill="#FFFFFF" d="M150.8,35V15h-5.4v20H150.8z"/>
		<path fill="#FFFFFF" d="M169,35V20.5h-5.4v8.9c-0.5,0.5-1.1,1.1-2.3,1.1c-1.3,0-2.1-0.6-2.1-2v-8h-5.4v10.3c0,2.5,1.4,4.5,4.8,4.5
			c2.5,0,4.1-1,5-2V35H169z"/>
		<path fill="#FFFFFF" d="M186.5,35l-4.8-7.4l4.4-7h-5.9l-1.9,3.4l-1.9-3.4h-5.9l4.4,7l-4.7,7.4h5.9l2.3-3.8l2.2,3.8H186.5z"/>
	</g>
	<g>
		
			<radialGradient id="SVGID_1_" cx="32.2951" cy="77.2309" r="43.0375" gradientTransform="matrix(-0.3071 -0.7421 2.3009 -0.952 -128.5996 133.9105)" gradientUnits="userSpaceOnUse">
			<stop  offset="0" style="stop-color:#C1D82F"/>
			<stop  offset="5.404228e-02" style="stop-color:#BAD532"/>
			<stop  offset="0.3128" style="stop-color:#9BCB3C"/>
			<stop  offset="0.5624" style="stop-color:#83C441"/>
			<stop  offset="0.7967" style="stop-color:#74C044"/>
			<stop  offset="1" style="stop-color:#6FBE44"/>
		</radialGradient>
		<path fill="url(#SVGID_1_)" d="M62.2,54.1C78.1,39.4,78.4,0,78.4,0S33.8,2.3,16.2,18.7C0.3,33.5,0,72.8,0,72.8
			S44.6,70.5,62.2,54.1z"/>
		
			<linearGradient id="SVGID_2_" gradientUnits="userSpaceOnUse" x1="38.6387" y1="63.78" x2="38.6387" y2="88.8779" gradientTransform="matrix(0.924 -0.3823 0.3823 0.924 -26.1147 -35.5771)">
			<stop  offset="0" style="stop-color:#336A20"/>
			<stop  offset="0.1039" style="stop-color:#3E7828;stop-opacity:0.8961"/>
			<stop  offset="0.3005" style="stop-color:#509133;stop-opacity:0.6995"/>
			<stop  offset="0.4928" style="stop-color:#5EA43B;stop-opacity:0.5072"/>
			<stop  offset="0.6771" style="stop-color:#66B240;stop-opacity:0.3229"/>
			<stop  offset="0.85" style="stop-color:#6CBA43;stop-opacity:0.15"/>
			<stop  offset="1" style="stop-color:#6FBE44;stop-opacity:0"/>
		</linearGradient>
		<path fill="url(#SVGID_2_)" d="M77.2,15.5C78.3,6.7,78.4,0,78.4,0S33.8,2.3,16.2,18.7c-7.3,6.8-11.4,18.9-13.5,30L77.2,15.5z"/>
		
			<linearGradient id="SVGID_3_" gradientUnits="userSpaceOnUse" x1="18.2486" y1="71.475" x2="82.8989" y2="71.475" gradientTransform="matrix(0.924 -0.3823 0.3823 0.924 -26.1147 -35.5771)">
			<stop  offset="0" style="stop-color:#CFD329"/>
			<stop  offset="1" style="stop-color:#B2D235"/>
		</linearGradient>
		<path fill="url(#SVGID_3_)" d="M22.5,17.5c4,2.8,1.8,11.7,1.8,11.7s11.5-10.5,24-17.6C62.8,3.4,78.3,0,78.3,0S33.8,2.4,16.1,18.8
			C16.1,18.8,19.8,15.6,22.5,17.5z"/>
		<path fill="#F2EB49" d="M22.5,17.5c3.2,2.2,2.5,8.3,2,10.7c0.6-2.9,1.4-8.5-2-10.9c-2.6-1.8-6.5,1.5-6.5,1.5S19.8,15.6,22.5,17.5z
			"/>
		<path fill="#F2EB49" d="M48.4,11.4c-12.9,7.3-24.1,17.8-24.1,17.8l0,0c0,0,11.5-10.5,24-17.6C62.8,3.4,78.3,0,78.3,0l0,0
			C78.3,0,62.6,3.3,48.4,11.4z"/>
		
			<linearGradient id="SVGID_4_" gradientUnits="userSpaceOnUse" x1="50.5738" y1="63.7802" x2="50.5738" y2="72.824" gradientTransform="matrix(0.924 -0.3823 0.3823 0.924 -26.1147 -35.5771)">
			<stop  offset="0" style="stop-color:#FFFFFF"/>
			<stop  offset="0.1051" style="stop-color:#FCFDF9;stop-opacity:0.8949"/>
			<stop  offset="0.2288" style="stop-color:#F7FAED;stop-opacity:0.7712"/>
			<stop  offset="0.3618" style="stop-color:#EFF5DB;stop-opacity:0.6382"/>
			<stop  offset="0.5015" style="stop-color:#E6EFC2;stop-opacity:0.4985"/>
			<stop  offset="0.6464" style="stop-color:#D9E7A1;stop-opacity:0.3536"/>
			<stop  offset="0.7956" style="stop-color:#CBDF7B;stop-opacity:0.2044"/>
			<stop  offset="0.9457" style="stop-color:#BAD647;stop-opacity:5.434400e-02"/>
			<stop  offset="1" style="stop-color:#B2D235;stop-opacity:0"/>
		</linearGradient>
		<path opacity="0.5" fill="url(#SVGID_4_)" d="M22.5,17.5c0.8,0.6,1.4,1.4,1.8,2.4c4.6-3.8,10.6-7.7,18.2-10.3
			C63.2,2.6,78.3,0,78.3,0S33.8,2.4,16.1,18.8C16.1,18.8,19.8,15.6,22.5,17.5z"/>
		
			<linearGradient id="SVGID_5_" gradientUnits="userSpaceOnUse" x1="296.3345" y1="-172.4712" x2="296.3345" y2="-147.3749" gradientTransform="matrix(-0.924 0.3823 -0.3823 -0.924 252.2776 -208.3965)">
			<stop  offset="0" style="stop-color:#336A20"/>
			<stop  offset="0.1039" style="stop-color:#3E7828;stop-opacity:0.8961"/>
			<stop  offset="0.3005" style="stop-color:#509133;stop-opacity:0.6995"/>
			<stop  offset="0.4928" style="stop-color:#5EA43B;stop-opacity:0.5072"/>
			<stop  offset="0.6771" style="stop-color:#66B240;stop-opacity:0.3229"/>
			<stop  offset="0.85" style="stop-color:#6CBA43;stop-opacity:0.15"/>
			<stop  offset="1" style="stop-color:#6FBE44;stop-opacity:0"/>
		</linearGradient>
		<path fill="url(#SVGID_5_)" d="M1.2,57.3C0.1,66.2,0,72.8,0,72.8s44.6-2.3,62.2-18.7c7.3-6.8,11.4-18.9,13.5-30L1.2,57.3z"/>
		
			<linearGradient id="SVGID_6_" gradientUnits="userSpaceOnUse" x1="275.947" y1="-164.7752" x2="340.5933" y2="-164.7752" gradientTransform="matrix(-0.924 0.3823 -0.3823 -0.924 252.2776 -208.3965)">
			<stop  offset="0" style="stop-color:#CFD329"/>
			<stop  offset="1" style="stop-color:#B2D235"/>
		</linearGradient>
		<path fill="url(#SVGID_6_)" d="M55.9,55.3c-4-2.8-1.8-11.7-1.8-11.7s-11.5,10.5-24,17.6C15.6,69.4,0,72.8,0,72.8
			s44.6-2.3,62.2-18.7C62.3,54.1,58.6,57.2,55.9,55.3z"/>
		<path fill="#F2EB49" d="M55.9,55.3c-3.2-2.2-2.5-8.3-2-10.7c-0.6,2.9-1.4,8.5,2,10.9c2.6,1.8,6.5-1.5,6.5-1.5S58.6,57.2,55.9,55.3
			z"/>
		<path fill="#F2EB49" d="M29.9,61.5C42.8,54.2,54,43.6,54,43.6l0,0c0,0-11.5,10.5-24,17.6C15.6,69.4,0,72.8,0,72.8l0,0
			C0,72.8,15.7,69.5,29.9,61.5z"/>
		
			<linearGradient id="SVGID_7_" gradientUnits="userSpaceOnUse" x1="308.2701" y1="-172.4707" x2="308.2701" y2="-163.428" gradientTransform="matrix(-0.924 0.3823 -0.3823 -0.924 252.2776 -208.3965)">
			<stop  offset="0" style="stop-color:#FFFFFF"/>
			<stop  offset="0.1051" style="stop-color:#FCFDF9;stop-opacity:0.8949"/>
			<stop  offset="0.2288" style="stop-color:#F7FAED;stop-opacity:0.7712"/>
			<stop  offset="0.3618" style="stop-color:#EFF5DB;stop-opacity:0.6382"/>
			<stop  offset="0.5015" style="stop-color:#E6EFC2;stop-opacity:0.4985"/>
			<stop  offset="0.6464" style="stop-color:#D9E7A1;stop-opacity:0.3536"/>
			<stop  offset="0.7956" style="stop-color:#CBDF7B;stop-opacity:0.2044"/>
			<stop  offset="0.9457" style="stop-color:#BAD647;stop-opacity:5.434400e-02"/>
			<stop  offset="1" style="stop-color:#B2D235;stop-opacity:0"/>
		</linearGradient>
		<path opacity="0.5" fill="url(#SVGID_7_)" d="M55.9,55.3c-0.8-0.6-1.4-1.4-1.8-2.4c-4.6,3.8-10.6,7.7-18.2,10.3
			C15.2,70.2,0,72.8,0,72.8s44.6-2.3,62.2-18.7C62.3,54.1,58.6,57.2,55.9,55.3z"/>
	</g>
</g>
</svg>
